<svg width="39" height="39" viewBox="0 0 39 39" fill="none" xmlns="http://www.w3.org/2000/svg">
<circle opacity="0.2" cx="19.5" cy="19.5" r="19.5" fill="#3FA876"/>
<path fill-rule="evenodd" clip-rule="evenodd" d="M19.5 34C27.5081 34 34 27.5081 34 19.5C34 11.4919 27.5081 5 19.5 5C11.4919 5 5 11.4919 5 19.5C5 27.5081 11.4919 34 19.5 34ZM26.7243 15.6895C27.1051 15.2895 27.0895 14.6566 26.6895 14.2757C26.2895 13.8949 25.6565 13.9105 25.2757 14.3105L16.48 23.5497L12.7243 19.6046C12.3435 19.2046 11.7105 19.189 11.3105 19.5698C10.9105 19.9506 10.8949 20.5836 11.2757 20.9836L15.7557 25.6895C15.9445 25.8878 16.2063 26 16.48 26C16.7538 26 17.0155 25.8878 17.2043 25.6895L26.7243 15.6895Z" fill="#3FA876"/>
</svg>
